<svg xmlns="http://www.w3.org/2000/svg" aria-hidden="true" style="position:absolute;width:0;height:0;overflow:hidden">
  <defs>
    <symbol id="icon-google-play" viewBox="0 0 108 32">
      <path d="M4 0h99.999c2.208 0 4 1.784 4 4v24c0 2.208-1.792 4-4 4H4c-2.216 0-4-1.792-4-4V4c0-2.216 1.784-4 4-4z" style="fill:var(--color1, #000)"/>
      <path d="M103.999.632a3.37 3.37 0 0 1 2.368.992c.632.624.984 1.48.992 2.376v24a3.37 3.37 0 0 1-.992 2.368 3.37 3.37 0 0 1-2.368.992H4a3.374 3.374 0 0 1-2.376-.992A3.329 3.329 0 0 1 .64 28V4c0-.896.352-1.752.984-2.376A3.374 3.374 0 0 1 4 .632h99.999zm0-.632H4C2.936 0 1.92.424 1.168 1.168A4.029 4.029 0 0 0 0 4v24c0 1.056.424 2.072 1.168 2.824A4.07 4.07 0 0 0 4 32h99.999a4.067 4.067 0 0 0 2.824-1.176A4.067 4.067 0 0 0 107.999 28V4a4.07 4.07 0 0 0-1.176-2.832A4.024 4.024 0 0 0 103.999 0z" style="fill:var(--color2, #a6a6a6)"/>
      <path d="M37.928 8.192c.016.296-.032.584-.128.864a2.21 2.21 0 0 1-.464.736c-.232.24-.504.424-.808.544s-.632.176-.96.168c-.328 0-.656-.064-.96-.184a2.524 2.524 0 0 1-1.352-1.36A2.463 2.463 0 0 1 33.08 8a2.475 2.475 0 0 1 .176-.968 2.524 2.524 0 0 1 1.352-1.36c.304-.12.632-.184.96-.184.344 0 .68.072.992.2.288.12.544.304.744.536l-.416.424a1.687 1.687 0 0 0-.592-.44 1.632 1.632 0 0 0-.728-.128c-.248 0-.496.048-.72.144-.232.096-.44.24-.616.416s-.312.392-.4.624c-.088.232-.136.48-.128.736 0 .368.104.736.304 1.048a1.878 1.878 0 0 0 1.928.832c.368-.064.712-.24.976-.504.248-.264.392-.608.4-.968h-1.744v-.576h2.328c.024.112.032.24.032.36zM41.616 6.184h-2.184v1.52H41.4v.584h-1.968v1.52h2.184v.592h-2.8V5.6h2.8v.584zM44.216 10.4H43.6V6.184h-1.336V5.6h3.296v.584h-1.344V10.4zM47.944 10.4V5.6h.616v4.8h-.616zM51.296 10.4h-.616V6.184h-1.336V5.6h3.296v.584h-1.344V10.4zM58.88 9.776a2.484 2.484 0 0 1-3.512 0 2.411 2.411 0 0 1-.536-.816 2.49 2.49 0 0 1-.176-.96 2.502 2.502 0 0 1 .176-.968c.12-.304.304-.584.536-.816.224-.232.504-.416.8-.536a2.468 2.468 0 0 1 1.904 0c.304.128.576.312.808.536.232.24.416.512.536.816.12.312.184.632.176.968a2.49 2.49 0 0 1-.176.96c-.12.304-.304.584-.536.816zm-3.064-.4a1.86 1.86 0 0 0 1.304.536c.496 0 .96-.192 1.304-.536.184-.184.32-.4.408-.64.096-.232.136-.488.128-.736a1.803 1.803 0 0 0-.128-.744 1.75 1.75 0 0 0-.408-.64 1.833 1.833 0 0 0-1.304-.536 1.86 1.86 0 0 0-1.304.536c-.176.184-.312.4-.408.64a1.938 1.938 0 0 0-.12.744c-.008.248.032.504.12.736.096.24.232.456.408.64zM60.456 10.4V5.6h.752l2.328 3.728h.032l-.032-.92V5.6h.624v4.8h-.648l-2.44-3.92h-.024l.024.928V10.4h-.616zM54.504 17.4c-.672 0-1.328.2-1.888.576a3.476 3.476 0 0 0-1.248 1.528 3.385 3.385 0 0 0-.184 1.968 3.34 3.34 0 0 0 .936 1.736c.472.48 1.08.8 1.736.928a3.381 3.381 0 0 0 3.488-1.448c.376-.56.576-1.216.576-1.888.008-.448-.08-.896-.248-1.312a3.332 3.332 0 0 0-1.856-1.848 3.348 3.348 0 0 0-1.312-.24zm0 5.464c-.416.024-.824-.072-1.184-.28s-.648-.52-.824-.888c-.184-.376-.248-.8-.184-1.208s.248-.792.536-1.096c.28-.304.648-.52 1.056-.608a2.08 2.08 0 0 1 2.16.856c.232.336.36.744.36 1.16.016.264-.024.528-.12.768a1.843 1.843 0 0 1-.408.664 1.881 1.881 0 0 1-.632.456 1.92 1.92 0 0 1-.76.176zM47.056 17.4c-.672 0-1.328.2-1.888.576s-.992.912-1.248 1.528a3.455 3.455 0 0 0-.192 1.968c.136.656.464 1.264.936 1.736.48.48 1.088.8 1.744.928a3.398 3.398 0 0 0 3.488-1.448c.376-.56.576-1.216.576-1.888a3.356 3.356 0 0 0-3.416-3.4zm0 5.464a2.139 2.139 0 0 1-1.192-.28 2.152 2.152 0 0 1-.824-.888c-.176-.376-.24-.8-.176-1.208s.248-.792.528-1.096c.288-.304.656-.52 1.056-.608.408-.088.832-.056 1.216.096a2.066 2.066 0 0 1 1.312 1.92c.008.264-.032.528-.12.768-.088.248-.232.472-.408.664s-.392.352-.632.456a1.92 1.92 0 0 1-.76.176zm-8.864-4.424v1.448h3.456a3.049 3.049 0 0 1-.792 1.816c-.344.352-.76.624-1.216.808a3.59 3.59 0 0 1-1.448.248 3.835 3.835 0 0 1-2.68-1.144 3.821 3.821 0 0 1 0-5.392 3.801 3.801 0 0 1 2.68-1.144 3.63 3.63 0 0 1 2.6 1.032l1.024-1.024A5.08 5.08 0 0 0 40.152 14a4.99 4.99 0 0 0-1.96-.368c-.704-.008-1.4.12-2.048.384a5.28 5.28 0 0 0-3.312 4.904c0 .696.136 1.392.408 2.04s.664 1.232 1.168 1.72c.496.496 1.088.88 1.736 1.144a5.257 5.257 0 0 0 2.048.376 4.757 4.757 0 0 0 2-.344 4.838 4.838 0 0 0 1.688-1.136 4.774 4.774 0 0 0 1.248-3.376 4.87 4.87 0 0 0-.08-.904h-4.856zm36.248 1.12a3.171 3.171 0 0 0-1.12-1.536 3.096 3.096 0 0 0-1.792-.624c-.44 0-.872.088-1.272.264s-.76.432-1.064.752a3.196 3.196 0 0 0-.68 1.104c-.152.408-.216.84-.2 1.28a3.352 3.352 0 0 0 .968 2.416c.32.32.696.568 1.104.744.416.168.864.248 1.312.24a3.32 3.32 0 0 0 1.608-.392 3.472 3.472 0 0 0 1.224-1.112l-1.16-.776a1.98 1.98 0 0 1-.712.696c-.296.16-.624.248-.96.248a1.75 1.75 0 0 1-1.656-1.032l4.552-1.88-.152-.392zm-4.64 1.136a1.866 1.866 0 0 1 .472-1.368c.16-.184.368-.328.592-.44a1.83 1.83 0 0 1 .712-.176c.256-.016.512.04.744.168.224.128.4.32.52.552l-3.04 1.264zM66.096 24h1.496V13.992h-1.496V24zm-2.448-5.84H63.6a2.334 2.334 0 0 0-1.792-.76 3.376 3.376 0 0 0-2.312 1.04c-.608.64-.952 1.48-.952 2.36s.344 1.72.952 2.36a3.376 3.376 0 0 0 2.312 1.04c.336.008.672-.056.984-.184.304-.136.584-.336.808-.584h.048v.488c0 1.304-.696 2-1.816 2a1.99 1.99 0 0 1-1.04-.344 1.858 1.858 0 0 1-.672-.872l-1.304.544c.248.592.664 1.104 1.2 1.464s1.168.552 1.816.544c1.752 0 3.232-1.032 3.232-3.544V17.6h-1.416v.56zm-1.712 4.704c-.52-.048-1-.28-1.352-.664s-.544-.88-.544-1.4c0-.52.192-1.016.544-1.4s.832-.616 1.352-.664c.256.016.512.08.744.192s.432.272.608.464c.168.192.296.416.376.664.08.24.112.504.088.76.024.248-.008.512-.088.752-.088.24-.216.464-.384.656s-.376.344-.608.456c-.232.112-.48.168-.736.184zm19.503-8.872h-3.576V24h1.496v-3.792h2.08a3.097 3.097 0 0 0 2.312-.848c.304-.288.552-.64.72-1.032.16-.384.248-.8.248-1.224s-.088-.84-.248-1.232a3.202 3.202 0 0 0-.72-1.032 3.151 3.151 0 0 0-1.072-.656 3.103 3.103 0 0 0-1.24-.192zm.041 4.824h-2.12v-3.432h2.12c.224 0 .456.04.664.12.216.088.408.216.568.376.168.16.296.344.384.56a1.7 1.7 0 0 1 .136.664c0 .224-.048.448-.136.664-.088.208-.216.4-.384.56a1.714 1.714 0 0 1-1.232.488zm9.223-1.44a2.8 2.8 0 0 0-2.664 1.536l1.328.552c.128-.24.328-.44.568-.568.248-.136.52-.192.792-.168.384-.032.76.08 1.056.32.288.24.48.592.52.968v.104a3.31 3.31 0 0 0-1.56-.384c-1.432 0-2.88.784-2.88 2.248.008.312.088.616.224.896.128.28.32.528.552.728.232.208.496.368.792.464s.608.136.912.112c.376.024.752-.056 1.088-.224a2.11 2.11 0 0 0 .816-.752h.056v.768h1.44v-3.832c0-1.776-1.328-2.768-3.04-2.768zm-.176 5.488c-.496 0-1.176-.248-1.176-.856 0-.768.848-1.064 1.584-1.064a2.65 2.65 0 0 1 1.368.336 1.818 1.818 0 0 1-1.776 1.584zm8.464-5.264-1.712 4.336h-.048L95.455 17.6h-1.608l2.656 6.056-1.512 3.376h1.552l4.104-9.432h-1.656zM85.543 24h1.496V13.992h-1.496V24z" style="fill:var(--color3, #fff)"/>
      <path d="M8.344 6.024c-.264.32-.392.72-.368 1.128V24.84c-.024.408.104.816.368 1.128l.056.056 9.912-9.912v-.232L8.4 5.968l-.056.056zM21.616 19.416l-3.304-3.304v-.232l3.304-3.304.08.04 3.912 2.224c1.12.64 1.12 1.68 0 2.312l-3.912 2.224-.08.04z" style="fill:var(--color1, #000)"/>
      <path d="M21.696 19.376 18.312 16l-9.968 9.968c.232.2.52.312.824.32.304.016.6-.088.84-.272l11.688-6.64zM21.696 12.616l-11.688-6.64a1.322 1.322 0 0 0-1.664.048L18.312 16l3.384-3.384z" style="fill:var(--color1, #000)"/>
      <path d="m21.616 19.304-11.608 6.592a1.323 1.323 0 0 1-.8.272 1.289 1.289 0 0 1-.808-.264l-.056.064.056.056a1.339 1.339 0 0 0 1.608-.008l11.688-6.64-.08-.072z" opacity=".2" style="fill:var(--color1, #000)"/>
      <path d="M8.344 25.848a1.583 1.583 0 0 1-.368-1.12v.112c-.024.408.104.816.368 1.128l.056-.056-.056-.064zM25.608 17.032l-3.992 2.272.08.072 3.912-2.224c.232-.104.432-.256.576-.464.152-.2.24-.44.264-.688a1.519 1.519 0 0 1-.296.616c-.144.176-.336.32-.544.416z" opacity=".12" style="fill:var(--color1, #000)"/>
      <path d="m10.008 6.096 15.6 8.864c.208.096.4.24.544.416.144.184.248.392.296.624a1.35 1.35 0 0 0-.264-.696c-.144-.2-.344-.36-.576-.464l-15.6-8.864c-1.12-.632-2.032-.104-2.032 1.176v.112c0-1.28.912-1.808 2.032-1.168z" opacity=".25" style="fill:var(--color3, #fff)"/>
    </symbol>
    <symbol id="icon-message" viewBox="0 0 32 32">
      <path d="M22.586 4c1.788 0 3.508.707 4.773 1.975a6.715 6.715 0 0 1 1.975 4.759v10.533c0 3.72-3.027 6.733-6.748 6.733H9.414c-3.721 0-6.747-3.013-6.747-6.733V10.734a6.733 6.733 0 0 1 6.747-6.733h13.172zm2.121 8.72.107-.107a1.03 1.03 0 0 0-.015-1.333 1.12 1.12 0 0 0-.705-.347 1.01 1.01 0 0 0-.748.267L17.334 16a2.09 2.09 0 0 1-2.667 0l-6-4.8c-.415-.307-.988-.267-1.333.093-.36.36-.4.933-.095 1.333l.175.173 6.067 4.733a4.19 4.19 0 0 0 2.6.907c.945 0 1.867-.32 2.612-.907l6.015-4.813z" style="fill:var(--color4, #e43071)"/>
    </symbol>
    <symbol id="icon-app-store" viewBox="0 0 108 32">
      <path d="M99.392 0H7.616c-.28 0-.552 0-.832.008-.608.008-1.208.056-1.808.144S3.8.408 3.256.648a5.993 5.993 0 0 0-1.456.944c-.432.384-.792.816-1.064 1.296S.272 3.88.168 4.416a9.77 9.77 0 0 0-.16 1.6C0 6.264 0 6.504 0 6.752V25.24c0 .248 0 .488.008.744a9.77 9.77 0 0 0 .16 1.6c.104.528.296 1.04.568 1.52s.632.92 1.064 1.296c.424.376.92.696 1.456.936a6.67 6.67 0 0 0 1.72.512c.6.08 1.2.128 1.808.136.28.008.552.008.832.008.328.008.656.008.984.008h90.792c.328 0 .656 0 .984-.008.272 0 .552 0 .832-.008.6-.008 1.208-.056 1.8-.136a6.728 6.728 0 0 0 1.728-.512 5.74 5.74 0 0 0 1.456-.936 5.112 5.112 0 0 0 1.064-1.296c.28-.48.464-.992.56-1.52.104-.528.16-1.064.168-1.6.008-.256.008-.496.008-.744.008-.288.008-.576.008-.872V7.624c0-.288 0-.584-.008-.872 0-.248 0-.488-.008-.736a8.976 8.976 0 0 0-.168-1.6 4.819 4.819 0 0 0-.56-1.528c-.552-.96-1.44-1.744-2.52-2.24a6.699 6.699 0 0 0-1.728-.496c-.592-.088-1.2-.136-1.8-.144-.28-.008-.56-.008-.832-.008h-.984z" style="fill:var(--color2, #a6a6a6)"/>
      <path d="M7.544 31.296c-.28 0-.552 0-.824-.008a13.319 13.319 0 0 1-1.688-.128 5.655 5.655 0 0 1-1.496-.44 4.633 4.633 0 0 1-1.264-.816 4.065 4.065 0 0 1-.92-1.112 4.238 4.238 0 0 1-.496-1.328 9.49 9.49 0 0 1-.152-1.504c0-.168-.008-.728-.008-.728V6.752s.008-.56.008-.72c.008-.504.064-1 .152-1.496.088-.464.256-.912.496-1.328.232-.416.544-.792.912-1.12a5.01 5.01 0 0 1 1.272-.816c.472-.216.976-.36 1.496-.44.56-.08 1.128-.12 1.696-.128l.816-.008 93.736.008c.56.008 1.12.048 1.68.128.52.08 1.032.224 1.512.44a4.824 4.824 0 0 1 2.184 1.936c.232.416.392.856.48 1.32a9.5 9.5 0 0 1 .16 1.512v.712c.008.296.008.584.008.872v16.744c0 .288 0 .576-.008.864v.744a9.203 9.203 0 0 1-.16 1.48c-.08.464-.248.912-.488 1.336-.24.408-.544.784-.92 1.112a4.828 4.828 0 0 1-1.264.816c-.472.216-.984.36-1.504.44-.56.08-1.128.12-1.688.128-.272.008-.544.008-.816.008l-.976.008-91.936-.008z" style="fill:var(--color1, #000)"/>
      <path d="M26.232 16.24a3.864 3.864 0 0 1 .52-1.904c.328-.584.8-1.072 1.368-1.424a4.146 4.146 0 0 0-1.392-1.24 4.028 4.028 0 0 0-1.8-.48c-1.344-.144-2.648.8-3.336.8-.696 0-1.744-.792-2.88-.768-.736.024-1.456.24-2.08.624s-1.144.92-1.504 1.56c-1.544 2.68-.392 6.616 1.088 8.784.744 1.056 1.608 2.24 2.744 2.2 1.112-.048 1.528-.704 2.864-.704 1.328 0 1.72.704 2.872.68 1.192-.024 1.944-1.064 2.656-2.136a8.782 8.782 0 0 0 1.216-2.472 3.845 3.845 0 0 1-1.696-1.416 3.805 3.805 0 0 1-.64-2.104zM24.048 9.768a3.942 3.942 0 0 0 .896-2.792 3.98 3.98 0 0 0-2.568 1.32 3.8 3.8 0 0 0-.728 1.256 3.826 3.826 0 0 0-.192 1.44 3.32 3.32 0 0 0 2.592-1.224zM40.264 21.704h-3.792l-.904 2.688H33.96l3.584-9.936h1.672l3.584 9.936h-1.632l-.904-2.688zm-3.4-1.232h3l-1.48-4.36h-.04l-1.48 4.36zM50.544 20.776c0 2.248-1.2 3.696-3.024 3.696a2.477 2.477 0 0 1-1.32-.312 2.39 2.39 0 0 1-.952-.96h-.04v3.592H43.72v-9.64h1.44v1.2h.032c.232-.4.568-.728.976-.952a2.501 2.501 0 0 1 1.328-.328c1.84 0 3.048 1.456 3.048 3.704zm-1.528 0c0-1.472-.752-2.432-1.912-2.432-1.136 0-1.896.984-1.896 2.432 0 1.456.76 2.432 1.896 2.432 1.16 0 1.912-.96 1.912-2.432zM58.52 20.776c0 2.248-1.208 3.696-3.024 3.696a2.443 2.443 0 0 1-1.32-.312 2.41 2.41 0 0 1-.96-.96h-.032v3.592h-1.488v-9.64h1.44v1.2h.024c.232-.4.576-.728.976-.952a2.53 2.53 0 0 1 1.336-.328c1.832 0 3.048 1.456 3.048 3.704zm-1.528 0c0-1.472-.76-2.432-1.912-2.432-1.136 0-1.904.984-1.904 2.432 0 1.456.768 2.432 1.904 2.432 1.152 0 1.912-.96 1.912-2.432zM63.784 21.624c.112.984 1.072 1.632 2.376 1.632 1.256 0 2.16-.648 2.16-1.536 0-.768-.544-1.232-1.832-1.544l-1.288-.312c-1.824-.44-2.672-1.296-2.672-2.68 0-1.712 1.496-2.888 3.616-2.888 2.096 0 3.536 1.176 3.584 2.888h-1.504c-.088-.992-.904-1.592-2.104-1.592s-2.016.608-2.016 1.488c0 .704.52 1.12 1.8 1.432l1.096.272c2.04.48 2.888 1.296 2.888 2.752 0 1.856-1.48 3.024-3.84 3.024-2.2 0-3.688-1.136-3.784-2.936h1.52zM73.096 15.432v1.72h1.376v1.176h-1.376v3.992c0 .624.272.912.88.912.168-.008.328-.016.488-.04v1.176a4.044 4.044 0 0 1-.824.064c-1.464 0-2.04-.552-2.04-1.952v-4.152h-1.048v-1.176H71.6v-1.72h1.496zM75.272 20.768c0-2.272 1.344-3.704 3.432-3.704 2.104 0 3.44 1.432 3.44 3.704 0 2.288-1.328 3.712-3.44 3.712-2.104 0-3.432-1.424-3.432-3.712zm5.352 0c0-1.56-.712-2.48-1.92-2.48-1.2 0-1.92.928-1.92 2.48 0 1.576.72 2.488 1.92 2.488 1.208 0 1.92-.912 1.92-2.488zM83.368 17.152h1.416v1.232h.04c.096-.384.32-.728.632-.968.32-.232.712-.36 1.104-.344.176 0 .344.024.512.056v1.392a2.098 2.098 0 0 0-.672-.088 1.395 1.395 0 0 0-.624.112c-.2.08-.384.208-.528.36-.152.16-.264.352-.328.552a1.577 1.577 0 0 0-.064.64v4.296h-1.488v-7.24zM93.928 22.264c-.2 1.32-1.48 2.216-3.12 2.216-2.104 0-3.416-1.408-3.416-3.672 0-2.272 1.312-3.744 3.352-3.744 2.008 0 3.264 1.376 3.264 3.568v.512h-5.112v.088c-.024.264.008.536.096.792.088.248.232.48.416.672.184.2.408.352.656.448.248.104.512.152.776.144a1.71 1.71 0 0 0 1.008-.232c.304-.184.536-.464.664-.792h1.416zm-5.024-2.16h3.616c.016-.24-.024-.48-.104-.704a1.752 1.752 0 0 0-.384-.6 1.622 1.622 0 0 0-.584-.4c-.224-.096-.464-.136-.704-.136s-.48.048-.704.136c-.224.096-.432.232-.6.4s-.304.376-.4.6a1.78 1.78 0 0 0-.136.704zM36.68 6.984c.312-.024.624.024.912.136.296.112.56.288.776.512.208.232.376.504.472.8s.128.608.088.92c0 1.528-.824 2.4-2.248 2.4h-1.728V6.984h1.728zm-.984 4.096h.904c.216.016.44-.024.648-.104.208-.088.392-.216.544-.384.152-.16.264-.36.328-.568.064-.216.08-.44.048-.664.032-.216.016-.44-.056-.656a1.508 1.508 0 0 0-.864-.944 1.513 1.513 0 0 0-.648-.104h-.904v3.424zM39.76 9.952c-.016-.24.008-.48.08-.704.08-.224.2-.432.36-.608s.352-.312.568-.408c.224-.096.456-.152.696-.152s.472.056.688.152c.216.096.416.232.576.408s.28.384.352.608c.08.224.104.464.08.704.024.24 0 .472-.08.704-.072.224-.192.432-.352.608s-.36.32-.576.416a1.75 1.75 0 0 1-1.384 0c-.216-.096-.408-.24-.568-.416s-.28-.384-.36-.608a1.91 1.91 0 0 1-.08-.704zm2.672 0c0-.784-.352-1.24-.968-1.24s-.968.456-.968 1.24.352 1.24.968 1.24.968-.456.968-1.24zM47.68 11.752h-.744l-.744-2.648h-.056l-.736 2.648h-.736l-.992-3.6h.72l.648 2.752h.056l.736-2.752h.688l.736 2.752h.056l.64-2.752h.712l-.984 3.6zM49.504 8.152h.68v.576h.056c.088-.208.24-.384.432-.496s.416-.168.64-.152c.176-.008.352.016.52.08.16.064.304.16.424.296a1.143 1.143 0 0 1 .304.968v2.328h-.712V9.6c0-.576-.248-.864-.776-.864a.82.82 0 0 0-.64.256.911.911 0 0 0-.184.304.867.867 0 0 0-.032.352v2.104h-.712v-3.6zM53.696 6.744h.712v5.008h-.712V6.744zM55.392 9.952a1.68 1.68 0 0 1 .44-1.312c.16-.176.352-.312.568-.408s.456-.152.696-.152c.232 0 .472.056.688.152s.408.232.568.408a1.68 1.68 0 0 1 .44 1.312c.024.24-.008.472-.08.704-.072.224-.192.432-.352.608s-.36.32-.576.416a1.722 1.722 0 0 1-1.384 0 1.742 1.742 0 0 1-.576-.416 1.66 1.66 0 0 1-.352-.608 1.756 1.756 0 0 1-.08-.704zm2.664 0c0-.784-.344-1.24-.96-1.24-.624 0-.968.456-.968 1.24s.344 1.24.968 1.24c.616 0 .96-.456.96-1.24zM59.536 10.736c0-.648.488-1.024 1.344-1.072l.976-.064v-.304c0-.384-.256-.6-.736-.6-.4 0-.672.144-.752.4h-.688c.072-.616.656-1.016 1.472-1.016.904 0 1.408.448 1.408 1.216v2.456h-.68v-.504h-.056c-.112.184-.28.328-.464.432a1.283 1.283 0 0 1-.616.136c-.152.016-.304 0-.456-.048a1.155 1.155 0 0 1-.384-.224 1.102 1.102 0 0 1-.272-.368 1.353 1.353 0 0 1-.096-.44zm2.32-.312v-.296l-.88.056c-.496.032-.72.2-.72.52s.28.512.664.512c.112.008.232 0 .336-.032a.773.773 0 0 0 .296-.168.87.87 0 0 0 .216-.264.865.865 0 0 0 .088-.328zM63.496 9.952c0-1.136.584-1.856 1.496-1.856a1.16 1.16 0 0 1 1.104.632h.056V6.744h.712v5.008h-.68v-.568h-.064a1.247 1.247 0 0 1-1.128.632c-.912 0-1.496-.72-1.496-1.864zm.736 0c0 .76.36 1.224.96 1.224s.968-.464.968-1.224c0-.752-.368-1.224-.968-1.224s-.96.464-.96 1.224zM69.8 9.952c-.016-.24.008-.48.08-.704.08-.224.2-.432.36-.608s.352-.312.568-.408c.224-.096.456-.152.696-.152.232 0 .472.056.688.152s.416.232.576.408c.16.176.28.384.352.608.08.224.104.464.08.704.024.24 0 .472-.08.704-.072.224-.192.432-.352.608s-.36.32-.576.416a1.75 1.75 0 0 1-1.384 0c-.216-.096-.408-.24-.568-.416s-.28-.384-.36-.608a1.756 1.756 0 0 1-.08-.704zm2.672 0c0-.784-.352-1.24-.968-1.24s-.968.456-.968 1.24.352 1.24.968 1.24.968-.456.968-1.24zM74.152 8.152h.688v.576h.048c.096-.208.248-.384.44-.496s.416-.168.64-.152a1.23 1.23 0 0 1 .512.08c.168.064.312.16.432.296.12.128.208.28.264.448.048.168.064.344.04.52v2.328h-.712V9.6c0-.576-.256-.864-.776-.864a.88.88 0 0 0-.352.056.811.811 0 0 0-.288.2c-.088.088-.144.192-.184.304s-.048.232-.04.352v2.104h-.712v-3.6zM81.232 7.256v.912h.776v.6h-.776v1.848c0 .384.152.544.512.544.088 0 .176 0 .264-.016v.592c-.12.024-.256.04-.384.04-.792 0-1.104-.28-1.104-.976V8.768h-.576v-.6h.576v-.912h.712zM82.984 6.744h.704v1.984h.056a1.12 1.12 0 0 1 .448-.496c.192-.112.424-.168.648-.144a1.23 1.23 0 0 1 .512.08 1.209 1.209 0 0 1 .688.744c.048.168.064.344.04.52v2.32h-.712V9.6c0-.568-.264-.864-.768-.864a.913.913 0 0 0-.36.048c-.112.048-.216.112-.304.2s-.152.192-.192.304c-.048.12-.064.24-.048.36v2.104h-.712V6.744zM90.232 10.784a1.526 1.526 0 0 1-.592.8c-.288.192-.632.28-.976.24a1.58 1.58 0 0 1-.688-.136 1.519 1.519 0 0 1-.568-.408 1.63 1.63 0 0 1-.352-.616A1.705 1.705 0 0 1 87 9.968c-.032-.24-.008-.48.064-.704.064-.232.184-.44.344-.616.152-.184.344-.328.568-.424.216-.096.448-.144.688-.144 1 0 1.608.688 1.608 1.816v.248h-2.544v.04c-.008.136.008.264.048.392s.112.24.2.336c.096.096.2.176.328.232.12.048.248.072.384.072a.824.824 0 0 0 .496-.088.83.83 0 0 0 .36-.344h.688zm-2.504-1.16h1.816a.894.894 0 0 0-.232-.664c-.088-.088-.184-.16-.296-.208s-.232-.064-.352-.064c-.128 0-.248.024-.36.064A.824.824 0 0 0 88 8.96a.895.895 0 0 0-.208.304c-.04.112-.064.232-.064.36z" style="fill:var(--color3, #fff)"/>
    </symbol>
    <symbol id="icon-search-Icon" viewBox="0 0 33 32">
      <path d="m1.79 26.69 6.947-6.708a2.49 2.49 0 0 1 3.458 3.58L5.248 30.27a2.49 2.49 0 0 1-3.458-3.58z" style="fill:var(--color3, #fff)"/>
      <path fill="none" stroke="#fff" stroke-width="4.978" d="M30.898 13.045c0 5.83-4.726 10.556-10.556 10.556S9.786 18.875 9.786 13.045c0-5.83 4.726-10.556 10.556-10.556s10.556 4.726 10.556 10.556z" style="stroke:var(--color3, #fff)"/>
    </symbol>
    <symbol id="icon-phone" viewBox="0 0 16 16">
      <path d="M11 10c-1 1-1 2-2 2s-2-1-3-2-2-2-2-3 1-1 2-2-2-4-3-4-3 3-3 3c0 2 2.055 6.055 4 8s6 4 8 4c0 0 3-2 3-3s-3-4-4-3z"/>
    </symbol>
    <symbol id="icon-location" viewBox="0 0 16 16">
      <path d="M8 0a5 5 0 0 0-5 5c0 5 5 11 5 11s5-6 5-11a5 5 0 0 0-5-5zm0 8a3 3 0 1 1 0-6 3 3 0 0 1 0 6z"/>
    </symbol>
    <symbol id="icon-facebook" viewBox="0 0 16 16">
      <path d="M9.5 3H12V0H9.5C7.57 0 6 1.57 6 3.5V5H4v3h2v8h3V8h2.5l.5-3H9V3.5c0-.271.229-.5.5-.5z"/>
    </symbol>
    <symbol id="icon-instagram" viewBox="0 0 16 16">
      <path d="M8 1.441c2.137 0 2.391.009 3.231.047.781.034 1.203.166 1.484.275.372.144.641.319.919.597.281.281.453.547.6.919.109.281.241.706.275 1.484.037.844.047 1.097.047 3.231s-.009 2.391-.047 3.231c-.034.781-.166 1.203-.275 1.484a2.478 2.478 0 0 1-.597.919 2.51 2.51 0 0 1-.919.6c-.281.109-.706.241-1.484.275-.844.037-1.097.047-3.231.047s-2.391-.009-3.231-.047c-.781-.034-1.203-.166-1.484-.275a2.478 2.478 0 0 1-.919-.597 2.51 2.51 0 0 1-.6-.919c-.109-.281-.241-.706-.275-1.484-.038-.844-.047-1.097-.047-3.231s.009-2.391.047-3.231c.034-.781.166-1.203.275-1.484.144-.372.319-.641.597-.919a2.51 2.51 0 0 1 .919-.6c.281-.109.706-.241 1.484-.275C5.61 1.45 5.863 1.441 8 1.441zM8 0C5.828 0 5.556.009 4.703.047c-.85.038-1.434.175-1.941.372a3.904 3.904 0 0 0-1.419.925A3.918 3.918 0 0 0 .418 2.76C.221 3.269.084 3.851.046 4.701c-.037.856-.047 1.128-.047 3.3s.009 2.444.047 3.297c.038.85.175 1.434.372 1.941.206.528.478.975.925 1.419a3.91 3.91 0 0 0 1.416.922c.509.197 1.091.334 1.941.372.853.037 1.125.047 3.297.047s2.444-.009 3.297-.047c.85-.037 1.434-.175 1.941-.372.525-.203.972-.478 1.416-.922s.719-.891.922-1.416c.197-.509.334-1.091.372-1.941.037-.853.047-1.125.047-3.297s-.009-2.444-.047-3.297c-.037-.85-.175-1.434-.372-1.941a3.752 3.752 0 0 0-.916-1.422 3.91 3.91 0 0 0-1.416-.922C12.732.225 12.15.088 11.3.05 10.444.009 10.172 0 8 0z"/>
      <path d="M8 3.891a4.11 4.11 0 0 0 0 8.218 4.11 4.11 0 0 0 0-8.218zm0 6.775a2.667 2.667 0 1 1 .001-5.333A2.667 2.667 0 0 1 8 10.666zM13.231 3.728a.96.96 0 1 1-1.918 0 .96.96 0 0 1 1.918 0z"/>
    </symbol>
    <symbol id="icon-twitter" viewBox="0 0 16 16">
      <path d="M16 3.538a6.461 6.461 0 0 1-1.884.516 3.301 3.301 0 0 0 1.444-1.816 6.607 6.607 0 0 1-2.084.797 3.28 3.28 0 0 0-2.397-1.034 3.28 3.28 0 0 0-3.197 4.028 9.321 9.321 0 0 1-6.766-3.431 3.284 3.284 0 0 0 1.015 4.381A3.301 3.301 0 0 1 .643 6.57v.041A3.283 3.283 0 0 0 3.277 9.83a3.291 3.291 0 0 1-1.485.057 3.293 3.293 0 0 0 3.066 2.281 6.586 6.586 0 0 1-4.862 1.359 9.286 9.286 0 0 0 5.034 1.475c6.037 0 9.341-5.003 9.341-9.341 0-.144-.003-.284-.009-.425a6.59 6.59 0 0 0 1.637-1.697z"/>
    </symbol>
    <symbol id="icon-youtube" viewBox="0 0 16 16">
      <path d="M15.841 4.8s-.156-1.103-.637-1.587c-.609-.637-1.291-.641-1.603-.678-2.237-.163-5.597-.163-5.597-.163h-.006s-3.359 0-5.597.163c-.313.038-.994.041-1.603.678C.317 3.697.164 4.8.164 4.8S.005 6.094.005 7.391v1.213c0 1.294.159 2.591.159 2.591s.156 1.103.634 1.588c.609.637 1.409.616 1.766.684 1.281.122 5.441.159 5.441.159s3.363-.006 5.6-.166c.313-.037.994-.041 1.603-.678.481-.484.637-1.588.637-1.588s.159-1.294.159-2.591V7.39c-.003-1.294-.162-2.591-.162-2.591zm-9.494 5.275V5.578l4.322 2.256-4.322 2.241z"/>
    </symbol>
    <symbol id="icon-dribbble" viewBox="0 0 16 16">
      <path d="M8 16c-4.412 0-8-3.588-8-8s3.587-8 8-8c4.412 0 8 3.587 8 8s-3.588 8-8 8zm6.747-6.906c-.234-.075-2.116-.634-4.256-.291a29.7 29.7 0 0 1 1.328 4.872 6.845 6.845 0 0 0 2.928-4.581zM10.669 14.3c-.103-.6-.497-2.688-1.456-5.181-.016.006-.031.009-.044.016-3.856 1.344-5.241 4.016-5.362 4.266a6.807 6.807 0 0 0 6.863.9zm-7.747-1.722c.156-.266 2.031-3.369 5.553-4.509a7.04 7.04 0 0 1 .269-.081 24.04 24.04 0 0 0-.553-1.159c-3.409 1.022-6.722.978-7.022.975-.003.069-.003.138-.003.209 0 1.753.666 3.356 1.756 4.566zM1.313 6.609c.306.003 3.122.016 6.319-.831a43.092 43.092 0 0 0-2.534-3.953 6.854 6.854 0 0 0-3.784 4.784zM6.4 1.366a36.612 36.612 0 0 1 2.55 4c2.431-.909 3.459-2.294 3.581-2.469A6.799 6.799 0 0 0 6.4 1.366zm6.891 2.325c-.144.194-1.291 1.663-3.816 2.694.159.325.313.656.453.991.05.119.1.234.147.353 2.275-.284 4.534.172 4.759.219a6.816 6.816 0 0 0-1.544-4.256z"/>
    </symbol>
  </defs>
</svg>
